<svg xmlns="http://www.w3.org/2000/svg" xmlns:xlink="http://www.w3.org/1999/xlink" width="92" height="92" viewBox="0 0 92 92">
  <defs>
    <rect id="rect-3" width="42" height="42" x="23" y="28"/>
    <mask id="mask-4" maskContentUnits="userSpaceOnUse" maskUnits="userSpaceOnUse">
      <rect width="92" height="92" x="0" y="0" fill="black"/>
      <use fill="white" xlink:href="#rect-3"/>
    </mask>
  </defs>
  <g>
    <g opacity=".42">
      <ellipse cx="46" cy="46" fill="rgb(200,200,200)" rx="46" ry="46"/>
    </g>
    <ellipse cx="46" cy="47" fill="rgb(200,200,200)" rx="37" ry="37"/>
    <g>
      <use fill="none" xlink:href="#rect-3"/>
      <g mask="url(#mask-4)">
        <path fill="rgb(69,90,100)" fill-rule="evenodd" d="M60.4341946 58.13032686H39.35964c-3.043642-.00701892-5.66263955-2.15360912-6.26703676-5.13673437l-4.45007888-22.2541606h-4.729466c-.50424925 0-.91305836-.40880911-.91305836-.91305837s.4088091-.91305837.91305836-.91305837h5.478179c.4339745-.0000856.8079458.30523729.8947407.73039534l4.5979897 22.99011971c.43097862 2.13101163 2.30151996 3.66498734 4.47567225 3.67037993H60.4341946c.50424925 0 .91305836.4088091.91305836.91305836 0 .50424926-.4088091.91305837-.91305836.91305837z"/>
        <path fill="rgb(225,144,23)" fill-rule="evenodd" d="M64.77111483 34.7001553c-.1734186-.19635848-.42284694-.30874675-.68477237-.30857555H31.21726849c-.50424926-.0000856-.91314396.40855231-.91322956.91280157 0 .06137272.00616296.12265985.01848886.18283422l3.65214786 18.26056812c.0867949.42515805.4608518.73048093.8947407.73039533.04014478.0026535.08037516.0026535.12051994 0l27.39089497-3.65214786c.4114626-.05495298.73407599-.38056224.78517713-.79253842l1.82603113-14.60850586c.0349234-.26218222-.04570855-.52658995-.22092469-.72483155z"/>
        <path fill="rgb(250,250,250)" fill-rule="evenodd" d="M38.52147862 50.82611673c-.4463004-.0001712-.82703384-.32304137-.90021888-.7632644l-1.82603114-10.956358c-.06770686-.49971264.2824686-.95962288.78218125-1.02732975.4784847-.06488218.92478509.25413615 1.01834212.72791303l1.82603113 10.956358c.08242947.49714473-.25345138.96706978-.75051052 1.05001283-.0494748.00847406-.09954879.01275389-.14979396.01266829z"/>
        <path fill="rgb(250,250,250)" fill-rule="evenodd" d="M56.78213233 47.17396887c-.50424925-.0001712-.91288717-.4090659-.91280157-.91331516 0-.0743834.00915883-.14851.0271341-.2206679L57.722496 38.7357757c.11067633-.49192336.59926142-.80101249 1.09118477-.69033615.49192336.11067633.80101249.59926142.69033615 1.09118478-.00308147.01378104-.00650533.02747649-.01027158.04108634l-1.82603113 7.30421013c-.10134632.4065836-.46658678.69196248-.88558188.69204808z"/>
        <ellipse cx="56.782" cy="64.522" fill="rgb(69,90,100)" rx="4.565" ry="4.565"/>
        <ellipse cx="38.521" cy="64.522" fill="rgb(69,90,100)" rx="4.565" ry="4.565"/>
        <path fill="rgb(250,250,250)" fill-rule="evenodd" d="M43.08668485 49.91305836c-.47386249.00188313-.87043129-.35890632-.91305837-.83088568l-.91305836-10.04329962c-.0472493-.50202375.32141503-.94729698.82352437-.99454628.0024823-.00025679.004879-.00042798.0073613-.00068477.50219495-.04545177.94609864.3249245.9915504.82711943v.0000856l.91305837 10.04329962c.04536617.50219494-.3249245.94609864-.82711943.9915504h-.0000856l-.08217268.0073613z"/>
        <path fill="rgb(250,250,250)" fill-rule="evenodd" d="M47.65180548 49c-.50424926 0-.91305837-.4088091-.91305837-.91305836v-9.13024126c0-.50424926.4088091-.91305837.91305837-.91305837.50424925 0 .91305836.4088091.91305836.91305837v9.13032685c0 .50424926-.4088091.91297277-.91305836.91297277z"/>
        <path fill="rgb(250,250,250)" fill-rule="evenodd" d="M52.2169261 48.08702723h-.10228787c-.50142457-.05306986-.8648675-.50262292-.81179765-1.00413309.00034239-.00308147.00068477-.00624855.00102716-.00933002l.91305837-8.2172685c.0592328-.50219493.5104122-.86392594 1.01346311-.81256801.50116778.05546656.8625564.50664596.80717544 1.00789934v.0000856l-.91305837 8.21726848c-.04861884.46470366-.44022304.81770382-.90758018.8180462z"/>
      </g>
    </g>
  </g>
</svg>
