<svg xmlns="http://www.w3.org/2000/svg" xmlns:xlink="http://www.w3.org/1999/xlink" width="21.164" height="21.618" viewBox="0 0 21.164 21.618">
  <defs>
    <rect id="rect-1" width="21.164" height="21.618" x="0" y="0"/>
    <mask id="mask-2" maskContentUnits="userSpaceOnUse" maskUnits="userSpaceOnUse">
      <rect width="21.164" height="21.618" x="0" y="0" fill="black"/>
      <use fill="white" xlink:href="#rect-1"/>
    </mask>
  </defs>
  <g>
    <use fill="none" xlink:href="#rect-1"/>
    <g mask="url(#mask-2)">
      <path fill="rgb(69,90,100)" fill-rule="evenodd" d="M18.86359864 15.50857045H8.2438446c-1.53373251-.00361275-2.85348091-1.10849773-3.15804487-2.64396093L2.8433446 1.41003025H.4601025C.20600446 1.41003025 0 1.19960954 0 .94006423 0 .6805189.20600446.4700982.4601025.4700982h2.76052873c.21868564-.00004406.40713486.1571106.45087199.37594639L5.98849262 12.679434c.21717597 1.09686643 1.15976714 1.88642874 2.25535198 1.88920439h10.61975404c.25409804 0 .4601025.2104207.4601025.46996602 0 .25954532-.20600446.46996603-.4601025.46996603z"/>
      <path fill="rgb(69,90,100)" fill-rule="evenodd" d="M21.0490316 3.44867916c-.08738799-.1010689-.21307831-.15891698-.3450661-.15882886H4.1407931c-.25409804-.00004406-.46014563.21028854-.46018877.46983385 0 .03158954.0031056.06313502.00931679.09410775l1.84036687 9.39901212c.04373712.21883577.23222948.37599044.45087198.37594638.0202295.0013658.04050213.0013658.06073163 0l13.80264367-1.87982004c.20734159-.0282852.36991085-.1958816.39566141-.40793245l.92016187-7.51923613c.01759837-.13494946-.02303316-.27104443-.11132695-.37308262z"/>
      <path fill="rgb(232,156,20)" fill-rule="evenodd" d="M7.8214837 11.74897441c-.22489682-.00008811-.41675357-.16627465-.4536325-.39286463L6.44768931 5.7166937c-.0341184-.25721024.14233977-.49393354.39415175-.52878337.24111493-.03339592.46601176.13080802.51315641.3746687l.92016187 5.63941608c.04153733.2558885-.12771759.49776659-.37819244.54045873-.02493102.00436174-.05016398.00656463-.0754832.00652057z"/>
      <path fill="rgb(232,156,20)" fill-rule="evenodd" d="M17.0232749 9.86915437c-.25409804-.00008812-.46001623-.21055289-.4599731-.4700982 0-.03828635.00461526-.07644052.01367325-.11358137l.92016187-3.75959603c.0557713-.25320097.30197596-.41229418.54986281-.35532727.24788686.05696692.40364106.30844963.34786976.5616506-.0015528.00709332-.00327813.0141426-.005176.0211478l-.92016186 3.75959604c-.05106978.2092752-.2351194.35616437-.44625672.35620843z"/>
      <ellipse cx="17.023" cy="18.798" fill="rgb(69,90,100)" rx="2.3" ry="2.35"/>
      <ellipse cx="7.821" cy="18.798" fill="rgb(69,90,100)" rx="2.3" ry="2.35"/>
      <path fill="rgb(232,156,20)" fill-rule="evenodd" d="M10.12195307 11.27900839c-.23878574.00096927-.43862214-.18473494-.4601025-.4276704l-.4601025-5.16945006c-.02380956-.2583998.1619654-.4875892.4149851-.51190918.00125087-.00013218.0024586-.0002203.00370947-.00035247.25306284-.02339476.47675194.16724394.4996557.42573186v.00004406l.4601025 5.16945005c.02286063.25848792-.16373386.4869724-.4167967.51036716H10.163361l-.04140793.00378898z"/>
      <path fill="rgb(232,156,20)" fill-rule="evenodd" d="M12.4223793 10.80904236c-.25409804 0-.4601025-.21042071-.4601025-.46996602V5.6395923c0-.25954531.20600446-.46996603.4601025-.46996603.25409805 0 .4601025.21042072.4601025.46996603v4.69952808c0 .25954532-.20600445.46992197-.4601025.46992197z"/>
      <path fill="rgb(232,156,20)" fill-rule="evenodd" d="M14.72280554 10.3391204h-.05154425c-.25267464-.02731593-.43581847-.25870822-.40907585-.51684368.00017253-.00158608.00034507-.00321623.0005176-.00480231l.4601025-4.22956206c.02984822-.25848792.25720364-.44467677.51069781-.418242.25254525.02854954.43465388.26077893.40674666.51878221v.00004406l-.4601025 4.22956206c-.0244997.23919055-.22183436.42088548-.45734197.42106171z"/>
    </g>
  </g>
</svg>
