<svg xmlns="http://www.w3.org/2000/svg" xmlns:xlink="http://www.w3.org/1999/xlink" width="56" height="41.001" viewBox="0 0 56 41.001">
  <defs>
    <rect id="rect-1" width="56" height="41.001" x="0" y="0"/>
    <mask id="mask-2" maskContentUnits="userSpaceOnUse" maskUnits="userSpaceOnUse">
      <rect width="56" height="41.001" x="0" y="0" fill="black"/>
      <use fill="white" xlink:href="#rect-1"/>
    </mask>
  </defs>
  <g>
    <use fill="none" xlink:href="#rect-1"/>
    <g mask="url(#mask-2)">
      <path fill="rgb(255,0,0)" fill-rule="evenodd" d="M35.72438557 14.85472641c-.72438557 0-1.3114754.42984311-1.3114754.96020853v18.1479411c0 .52998998.58708983.96020853 1.3114754.96020853.72438558 0 1.31147541-.43021855 1.31147541-.96020853v-18.1479411c0-.53036542-.58708983-.96020853-1.3114754-.96020853z"/>
      <path fill="rgb(255,0,0)" fill-rule="evenodd" d="M20.24897574 14.85472641c-.72438558 0-1.31147541.42984311-1.31147541.96020853v18.1479411c0 .52998998.58708983.96020853 1.3114754.96020853.72438558 0 1.31147542-.43021855 1.31147542-.96020853v-18.1479411c0-.53036542-.58708984-.96020853-1.31147541-.96020853z"/>
      <path fill="rgb(255,0,0)" fill-rule="evenodd" d="M8.9702835 12.20629883v23.6574707c0 1.39831543.70030976 2.71148682 1.92366792 3.65368652 1.21772766.94482422 2.91239929 1.48120118 4.68596649 1.48345948h24.8135147c1.77407838-.0022583 3.46875-.53863526 4.68597413-1.48345948 1.22335815-.9421997 1.92366028-2.25537109 1.92366028-3.65368652v-23.6574707c2.4318695-.47259522 4.00769043-2.19274903 3.6823883-4.0197754-.32582092-1.82666015-2.45133972-3.1930542-4.96772766-3.1934204h-6.71466064V3.79284668c.00769043-1.00933838-.5373993-1.97857666-1.51332093-2.69158936C36.51382446.38861084 35.1880188-.00823975 33.80941772 0H22.1639328c-1.37858582-.00823975-2.70440674.38861084-3.68032837 1.10125732-.97592163.7130127-1.52100372 1.68225098-1.51332092 2.69158936v1.20025635h-6.71465302c-2.51638794.0003662-4.6418991 1.36676025-4.96772003 3.1934204-.32530975 1.82702637 1.25051117 3.54718018 3.68237305 4.0197754zM20.3376007 2.4586792c-.4846344.3529663-.75307464.83416748-.74436187 1.33416748v1.20025635h16.78688812V3.79284668c.00869751-.5-.2597351-.98156738-.7443695-1.33416748-.4841156-.3529663-1.14292908-.546875-1.82633973-.53826904H22.1639328c-.68340301-.00860596-1.3422165.18530273-1.8263321.53826904zM10.25563813 6.91351318h35.46208954c1.30378723 0 2.36065674.77380371 2.36065674 1.72839356 0 .95458984-1.0568695 1.72833252-2.36065674 1.72833252H10.25563812c-1.30379486 0-2.36065674-.77374268-2.36065674-1.72833252 0-.95458985 1.05686188-1.72839356 2.36065674-1.72839356zm30.13780976 32.16693116H15.5799179c-2.2423172 0-3.98667908-1.41027832-3.98667908-3.2166748V12.2906494h32.78688812v23.57312012c0 1.80639649-1.7443695 3.2166748-3.98667907 3.2166748z"/>
      <path fill="rgb(255,0,0)" fill-rule="evenodd" d="M27.98667908 14.85473633c-.7243805 0-1.31147766.4298706-1.31147766.96020508v18.14794922c0 .52996826.58709716.96020507 1.31147766.96020507.72438049 0 1.31147766-.43023681 1.31147766-.96020507V15.8149414c0-.53033448-.58709717-.96020508-1.31147766-.96020508z"/>
    </g>
  </g>
</svg>
