<svg xmlns="http://www.w3.org/2000/svg" xmlns:xlink="http://www.w3.org/1999/xlink" width="35.32" height="35.045" viewBox="0 0 35.32 35.045">
  <defs>
    <rect id="rect-1" width="35.32" height="35.045" x="0" y="0"/>
    <mask id="mask-2" maskContentUnits="userSpaceOnUse" maskUnits="userSpaceOnUse">
      <rect width="35.32" height="35.045" x="0" y="0" fill="black"/>
      <use fill="white" xlink:href="#rect-1"/>
    </mask>
  </defs>
  <g>
    <use fill="none" xlink:href="#rect-1"/>
    <g mask="url(#mask-2)">
      <path fill="rgb(239,155,20)" fill-rule="evenodd" d="M35.319933 17.52232763c0 3.86723246-1.26310151 7.44151351-3.40161308 10.33954223-3.21259625 4.3545722-8.40297078 2.70521467-14.25835342 2.70521467S6.61420933 32.21644207 3.40161308 27.86186986C1.2631015 24.96384114 0 21.3895601 0 17.52232763 0 7.84534841 7.90697406 0 17.6599665 0S35.319933 7.84534841 35.319933 17.52232763z"/>
      <path fill="rgb(219,130,0)" fill-rule="evenodd" d="M17.6599665 30.56708453c5.85538264 0 11.04575717 1.64935754 14.25835342-2.70521467 2.13851157-2.89802872 3.40161308-6.47230977 3.40161308-10.33954223 0-.10260144-.00213851-.20472376-.0039321-.30691452L23.02059414 5.01576628 10.82956055 15.06324691l2.49619487 2.49303023c.29559749 1.08070325 1.4934399 4.01671982 1.4934399 4.01671982l-11.41758224 6.2888729v.00006845c3.21266523 4.35450376 8.40297078 2.70514622 14.25835342 2.70514622z"/>
      <g>
        <path fill="rgb(88,75,102)" fill-rule="evenodd" d="M11.88226012 20.55656507H23.4376039v2.98906268H11.88226012v-2.98906268z"/>
        <path fill="rgb(74,62,86)" fill-rule="evenodd" d="M17.6599665 20.55656507h5.77743045v2.98906268H17.6599665v-2.98906268z"/>
        <path fill="rgb(255,187,125)" fill-rule="evenodd" d="M13.7947793 17.82951594h7.7303744v8.13419303h-7.7303744v-8.13419303z"/>
        <path fill="rgb(239,163,106)" fill-rule="evenodd" d="M17.6599665 17.82972128h3.8651872v8.13419302h-3.8651872v-8.13419302z"/>
        <path fill="rgb(255,212,166)" fill-rule="evenodd" d="M9.28272684 22.74425505h16.7545483v7.82303482H9.28272684v-7.82303482z"/>
        <path fill="rgb(255,187,125)" fill-rule="evenodd" d="M17.6599665 22.74425505h8.3774466v7.82282948h-8.3774466v-7.82282948z"/>
        <path fill="rgb(123,114,132)" fill-rule="evenodd" d="M31.91831992 27.86186986c-3.21259625 4.3545722-8.40297078 7.1827854-14.25835342 7.1827854s-11.04575717-2.8282132-14.25835342-7.1827854c.08829983-2.84121804 2.43790319-5.1177517 5.32282428-5.1177517h5.07034194l3.8651872 3.67626647 3.8651872-3.67626647h5.07103178c2.88561094 0 5.23452445 2.27584919 5.32213444 5.1177517z"/>
        <path fill="rgb(99,90,109)" fill-rule="evenodd" d="M31.91831992 27.86186986c-3.21259625 4.3545722-8.40297078 7.1827854-14.25835342 7.1827854v-8.62427063l3.02219973-2.87475688.84298747-.8015096h5.07103178c2.88561094 0 5.23452445 2.2758492 5.32213444 5.11775171z"/>
        <path fill="rgb(255,212,166)" fill-rule="evenodd" d="M24.11827144 10.34563398c-.27283269-4.10973874-3.62325946-5.62856862-6.45830494-5.62856862s-6.18547225 1.51882988-6.45830494 5.62856862c-.73316454.14065775-1.2539266 1.09480324-1.17190434 1.86619634l.1256893 1.7555182c.08602335.81006542.80366644 1.40151242 1.5945708 1.3134901l.13638185-.01464757c1.62009497 4.31644745 4.16085367 4.7664838 5.77356733 5.01918862 1.61271366-.25270482 4.15347235-.70274117 5.77356733-5.01918862l.13638185.01464757c.79090436.08802232 1.50854745-.50335624 1.5945708-1.3134901l.1256893-1.7555182c.08202226-.7713931-.4387398-1.7255386-1.17190434-1.86619634z"/>
        <path fill="rgb(255,187,125)" fill-rule="evenodd" d="M25.29024476 12.21183032l-.1256893 1.7555182c-.08602335.81006542-.80366644 1.40151242-1.5945708 1.3134901l-.13638185-.01464757c-.55373653 1.47351824-1.21426066 2.4969317-1.90838013 3.2150049-1.33857027 1.38549591-2.80276085 1.63751627-3.8651872 1.80418372V4.71706536c2.83504548 0 6.18547225 1.51882988 6.45830494 5.62856862.73309556.14065775 1.25385762 1.09480324 1.17190434 1.86619634z"/>
        <path fill="rgb(239,235,220)" fill-rule="evenodd" d="M19.02764812 13.9989024c-.7885589-.66523243-1.94680435-.66523243-2.73536325 0-.87941114.74182416-1.98384889 1.17002605-3.13719647 1.21636439l-1.26875821.05092426.08505757.50746304c.46253936 2.7599035 2.86877878 4.78318476 5.68850975 4.78318476 2.88292055-.1586592 5.26908556-2.28050356 5.74273138-5.10652646l.03083595-.18412134-1.26875821-.05092426c-1.15320961-.04633834-2.25764736-.47454023-3.1370585-1.2163644z"/>
        <path fill="rgb(214,207,189)" fill-rule="evenodd" d="M23.4332579 15.26632795l-.03035308.18412133c-.23661595 1.41342213-.95198257 2.65025205-1.96812048 3.55374707-1.01613792.90349502-2.33304714 1.47365514-3.77481784 1.55236872V13.4997214c.48702876 0 .97405753.16632522 1.36795756.49897566.87885927.74196106 1.98329702 1.17043673 3.13671358 1.21629594l1.26862025.05133495z"/>
        <path fill="rgb(157,151,165)" fill-rule="evenodd" d="M11.88226012 20.55656507l5.77770638 5.86381956-2.8888532 3.08009665-4.94085851-6.75622623 2.05200533-2.18768998z"/>
        <path fill="rgb(127,120,135)" fill-rule="evenodd" d="M23.43767288 20.55656507l-5.77770638 5.86381956 2.8888532 3.08009665 4.9408585-6.75622623-2.05200532-2.18768998z"/>
        <path fill="rgb(73,73,73)" fill-rule="evenodd" d="M13.74511064 2.01917447S10.0097518 5.63178561 10.7834101 9.19668948l.53918085 3.55148834h1.48316125l.70908905-2.61890352c.25227538-.93176346 1.22033128-1.49679008 2.1567234-1.23682992.09009343.024983.17970396.053183.26869364.08453154l.25931177.09130775c.9496371.33443005 1.98522858.3013019 2.92410414-.06167038.1891548-.07310096.3817588-.13169124.57629438-.17590774.92273325-.20965191 1.84698415.34572374 2.09256806 1.25284643l.7215062 2.66462584h1.48316126l.53773218-3.6977587c.11541064-3.16969325-2.45266582-7.03124465-10.78982563-7.03124465z"/>
        <path fill="rgb(51,51,51)" fill-rule="evenodd" d="M24.53493627 9.0506929l-.53738726 3.69748492h-1.48316125l-.7215752-2.66462584c-.2455839-.90691735-1.16997278-1.46270368-2.09298196-1.25257264-.19453557.04380582-.38700161.10266989-.57601844.17590774-.47185223.18206794-.9671591.2813155-1.46384566.29226695v-6.9398c5.25039082 1.0102717 6.96947818 4.08489264 6.87496977 6.69133887z"/>
      </g>
    </g>
  </g>
</svg>
