<svg xmlns="http://www.w3.org/2000/svg" xmlns:xlink="http://www.w3.org/1999/xlink" width="67" height="67.674" viewBox="0 0 67 67.674">
  <defs>
    <rect id="rect-1" width="67" height="67.674" x="0" y="0"/>
    <mask id="mask-2" maskContentUnits="userSpaceOnUse" maskUnits="userSpaceOnUse">
      <rect width="67" height="67.674" x="0" y="0" fill="black"/>
      <use fill="white" xlink:href="#rect-1"/>
    </mask>
  </defs>
  <g>
    <use fill="none" xlink:href="#rect-1"/>
    <g mask="url(#mask-2)">
      <path fill="rgb(69,90,100)" fill-rule="evenodd" d="M59.71645329 48.54856523H26.09752096c-4.85533368-.01130948-9.03325833-3.4700796-9.9974158-8.2767467L9.00116982 4.41400745H1.45654549C.65214786 4.41400746 0 3.75529918 0 2.94280956c0-.81248962.65214786-1.4711979 1.45654549-1.4711979h8.73899982c.69229264-.00013792 1.28886593.49182448 1.42732446 1.17687557l7.33488833 37.04365146c.6875135 3.4336686 3.6714723 5.90534175 7.13976286 5.91403074H59.7164533c.80439762 0 1.45654548.65870828 1.45654548 1.4711979 0 .81248963-.65214786 1.4711979-1.45654548 1.4711979z"/>
      <path fill="rgb(225,144,23)" fill-rule="evenodd" d="M66.63487366 10.79586451c-.27664396-.3163896-.67454155-.49747922-1.09237497-.49720337H13.10849974c-.80439763-.00013792-1.45668204.6582945-1.45681858 1.47078413 0 .098889.00983137.19764007.02949412.29459818l5.8260454 29.42299254c.13845853.68505109.73516836 1.17701348 1.42732446 1.17687556.06404048.00427554.1282175.00427554.192258 0l43.69499912-5.88465367c.65638081-.08854496 1.17102597-.61319451 1.25254445-1.27700585l2.91295443-23.53847678c.05571112-.42245047-.07291603-.84848688-.35242748-1.16791074z"/>
      <path fill="rgb(250,250,250)" fill-rule="evenodd" d="M24.76045399 36.7793958c-.7119554-.00027584-1.31931588-.52051194-1.43606346-1.22983704l-2.91295442-17.6538231c-.10800858-.80517984.45060467-1.54622665 1.24776531-1.65532176.76329702-.10454374 1.47525241.40948594 1.62449814 1.17287587l2.91295443 17.6538231c.13149464.80104223-.40431529 1.55822574-1.19724298 1.6918707-.07892409.01365412-.158804.02055015-.23895702.02041223z"/>
      <path fill="rgb(250,250,250)" fill-rule="evenodd" d="M53.89054443 30.89474212c-.80439762-.00027584-1.45627239-.65912203-1.45613584-1.47161166 0-.1198529.01461051-.23929205.04328536-.35555903L55.39064837 17.298402c.1765551-.79262908.95596466-1.29065998 1.74069953-1.11232878.78473488.1783312 1.27780563.96558137 1.10125053 1.75821045-.0049157.0222052-.01037757.04427248-.01638563.06620183l-2.91295442 11.76916944c-.1616715.65512234-.744317 1.11494926-1.41271395 1.11508718z"/>
      <ellipse cx="53.891" cy="58.847" fill="rgb(69,90,100)" rx="7.282" ry="7.356"/>
      <ellipse cx="24.76" cy="58.847" fill="rgb(69,90,100)" rx="7.282" ry="7.356"/>
      <path fill="rgb(250,250,250)" fill-rule="evenodd" d="M32.04304487 35.3081979c-.75592348.00303425-1.38854514-.57830063-1.45654548-1.33879423l-1.45654549-16.1826252c-.07537387-.8089037.5127335-1.5263661 1.31371746-1.60249821.00395986-.00041377.00778317-.0006896.01174303-.00110337.8011205-.07323578 1.50925258.5235462 1.58175897 1.33272573v.00013792l1.45654548 16.1826252c.07236985.80917954-.51833192 1.52443522-1.31945242 1.597671h-.00013655l-.131085.01186116z"/>
      <path fill="rgb(250,250,250)" fill-rule="evenodd" d="M39.32549921 33.837c-.80439762 0-1.45654549-.65870827-1.45654549-1.4711979V17.6543748c0-.81248963.65214787-1.4711979 1.4565455-1.4711979.80439762 0 1.45654548.65870827 1.45654548 1.4711979v14.71156522c0 .81248963-.65214786 1.47105998-1.45654549 1.47105998z"/>
      <path fill="rgb(250,250,250)" fill-rule="evenodd" d="M46.60795355 32.36594002h-.16317351c-.79989158-.0855107-1.3796696-.80986913-1.29501054-1.6179453.00054619-.00496514.00109238-.0100682.00163856-.01503334l1.45654549-13.24036733c.09449044-.80917953.814229-1.39203153 1.61671497-1.30927924.79948193.08937248 1.37598283.8163514 1.287637 1.6240138v.00013793l-1.45654548 13.24036733c-.07755863.74877036-.70226057 1.31755447-1.44780649 1.31810615z"/>
    </g>
  </g>
</svg>
