<svg xmlns="http://www.w3.org/2000/svg" xmlns:xlink="http://www.w3.org/1999/xlink" width="50" height="50" viewBox="0 0 50 50">
  <defs>
    <rect id="rect-1" width="50" height="50" x="0" y="0"/>
    <mask id="mask-2" maskContentUnits="userSpaceOnUse" maskUnits="userSpaceOnUse">
      <rect width="50" height="50" x="0" y="0" fill="black"/>
      <use fill="white" xlink:href="#rect-1"/>
    </mask>
  </defs>
  <g>
    <use fill="none" xlink:href="#rect-1"/>
    <g mask="url(#mask-2)">
      <path fill="rgb(239,155,20)" fill-rule="evenodd" d="M50 25c0 5.51757812-1.78808594 10.6171875-4.81542969 14.75195312C40.63671875 45.96484375 33.2890625 43.6116211 25 43.6116211c-8.2890625 0-15.63671875 2.35322266-20.18457031-3.85966797C1.78808594 35.6171875 0 30.51757812 0 25 0 11.19335937 11.19335938 0 25 0c13.80664063 0 25 11.19335937 25 25z"/>
      <path fill="rgb(219,130,0)" fill-rule="evenodd" d="M25 43.6116211c8.2890625 0 15.63671875 2.35322265 20.18457031-3.85966798C48.21191406 35.6171875 50 30.51757812 50 25c0-.14638672-.00302734-.29208984-.0055664-.43789063L32.58867186 7.15625l-17.2580078 14.3352539 3.5336914 3.5569336c.41845703 1.54189453 2.11416015 5.73085937 2.11416015 5.73085937L4.8154297 39.75195312v.00009766C9.3633789 45.96484375 16.7109375 43.6116211 25 43.6116211z"/>
      <g>
        <path fill="rgb(88,75,102)" fill-rule="evenodd" d="M16.82089844 29.32910156H33.1790039V33.59375H16.82089844v-4.26464844z"/>
        <path fill="rgb(74,62,86)" fill-rule="evenodd" d="M25 29.32910156h8.17871094V33.59375H25v-4.26464844z"/>
        <path fill="rgb(255,187,125)" fill-rule="evenodd" d="M19.52832031 25.43828125H30.4716797V37.04375H19.5283203V25.43828125z"/>
        <path fill="rgb(239,163,106)" fill-rule="evenodd" d="M25 25.43857422h5.47167969v11.60546875H25V25.43857422z"/>
        <path fill="rgb(255,212,166)" fill-rule="evenodd" d="M13.14091797 32.45039062h23.71826172v11.16152344H13.14091797V32.45039062z"/>
        <path fill="rgb(255,187,125)" fill-rule="evenodd" d="M25 32.45039062h11.859375V43.6116211H25V32.45039062z"/>
        <path fill="rgb(123,114,132)" fill-rule="evenodd" d="M45.18457031 39.75195312C40.63671875 45.96484375 33.2890625 50 25 50c-8.2890625 0-15.63671875-4.03515625-20.18457031-10.24804688.125-4.05371093 3.45117187-7.3017578 7.53515625-7.3017578h7.17773437L25 37.6953125l5.47167969-5.24511719h7.17871093c4.08496094 0 7.41015625 3.24707031 7.5341797 7.30175781z"/>
        <path fill="rgb(99,90,109)" fill-rule="evenodd" d="M45.18457031 39.75195312C40.63671875 45.96484375 33.2890625 50 25 50V37.6953125l4.27832031-4.1015625 1.19335938-1.14355469h7.17871093c4.08496094 0 7.41015625 3.24707031 7.5341797 7.30175781z"/>
        <path fill="rgb(255,212,166)" fill-rule="evenodd" d="M34.14257813 14.76064453C33.75634766 8.89707031 29.0133789 6.73007813 25 6.73007813c-4.0133789 0-8.75634766 2.16699218-9.14257812 8.0305664-1.03789063.2006836-1.77509766 1.56201172-1.65898438 2.66259766l.17792969 2.5046875c.12177734 1.15576172 1.13769531 1.99960937 2.25732422 1.87402343l.1930664-.02089843C19.12021484 27.93955079 22.7169922 28.58164062 25 28.9421875c2.28300781-.36054688 5.87978516-1.00263672 8.17324219-7.16113281l.1930664.02089843c1.11962891.12558594 2.13554688-.71816406 2.25732422-1.87402343l.17792969-2.5046875c.11611328-1.10058594-.62109375-2.46191407-1.65898437-2.66259766z"/>
        <path fill="rgb(255,187,125)" fill-rule="evenodd" d="M35.80166016 17.42324219l-.1779297 2.5046875c-.12177734 1.15576172-1.1376953 1.99960937-2.25732421 1.87402343l-.1930664-.02089843c-.78388673 2.10234375-1.71894532 3.5625-2.7015625 4.58701172-1.89492188 1.9767578-3.96767579 2.33632812-5.4716797 2.57412109V6.73007812c4.01337891 0 8.75634766 2.1669922 9.14257813 8.03056641 1.03779297.2006836 1.775 1.56201172 1.65898438 2.66259766z"/>
        <path fill="rgb(239,235,220)" fill-rule="evenodd" d="M26.93613281 19.97294922c-1.1163086-.9491211-2.75595703-.9491211-3.87226562 0-1.24492188 1.05839844-2.80839844 1.66933594-4.44111328 1.73544922l-1.79609375.07265625.12041015.72402343c.65478516 3.93769532 4.06113281 6.82441407 8.05283203 6.82441407 4.08115235-.22636719 7.45908203-3.25371094 8.12958985-7.28574219l.04365234-.26269531-1.79609375-.07265625c-1.63251953-.06611328-3.1959961-.67705078-4.44091797-1.73544922z"/>
        <path fill="rgb(214,207,189)" fill-rule="evenodd" d="M33.17285156 21.78125l-.04296875.26269531c-.33496094 2.01660157-1.34765625 3.78125-2.78613281 5.0703125-1.43847656 1.2890625-3.30273438 2.10253907-5.34375 2.21484375V19.2607422c.68945313 0 1.37890625.23730469 1.93652344.71191406 1.24414062 1.05859375 2.80761718 1.66992188 4.44042968 1.73535156l1.79589844.07324219z"/>
        <path fill="rgb(157,151,165)" fill-rule="evenodd" d="M16.82089844 29.32910156L25 37.6953125l-4.08955078 4.39453125-6.9944336-9.63945312 2.90488282-3.12128907z"/>
        <path fill="rgb(127,120,135)" fill-rule="evenodd" d="M33.17910156 29.32910156L25 37.6953125l4.08955078 4.39453125 6.9944336-9.63945312-2.90488282-3.12128907z"/>
        <path fill="rgb(73,73,73)" fill-rule="evenodd" d="M19.45800781 2.88085938s-5.28789062 5.15429687-4.19267578 10.24052734l.76328125 5.06708984h2.09960938l1.00380859-3.73652343c.3571289-1.32939454 1.72753906-2.13554688 3.053125-1.76464844.12753906.03564453.25439453.0758789.3803711.12060547l.36708984.13027343c1.34433594.47714844 2.81035156.42988282 4.13945312-.08798828.26777344-.10429687.54042969-.18789062.81582032-.25097656 1.30625-.2991211 2.61464843.49326172 2.96230468 1.7875l1.02138672 3.80175781h2.09960938l.76123047-5.27578125c.1633789-4.52236328-3.47207032-10.03183594-15.27441407-10.03183594z"/>
        <path fill="rgb(51,51,51)" fill-rule="evenodd" d="M34.73242188 12.91308594l-.7607422 5.27539062h-2.09960937l-1.02148437-3.80175781c-.34765625-1.29394531-1.65625-2.08691406-2.96289063-1.78710937-.27539062.0625-.54785156.14648437-.81542968.25097656-.66796875.25976562-1.36914063.40136719-2.07226563.41699219v-9.9013672c7.43261719 1.44140626 9.86621094 5.828125 9.73242188 9.546875z"/>
      </g>
    </g>
  </g>
</svg>
