<svg xmlns="http://www.w3.org/2000/svg" width="23.09" height="22.496" viewBox="0 0 23.09 22.496">
  <g transform="rotate(-81.9999 11.54518945 11.24781298)">
    <path fill="rgb(27,116,214)" fill-rule="evenodd" d="M5.9815852 15.680088l-3.77231192 5.2302193c.57977095.60259738 1.51985981.60259738 2.09963076 0l3.35236994-3.4843576-1.67968877-1.7458617z"/>
    <path fill="rgb(30,138,255)" fill-rule="evenodd" d="M6.8214296 16.55299828l-3.35236994 3.4843576c-.57977096.60259737-1.14386386.99339683-1.25978638.87291027-.57977095-.60259737-.57977095-1.5796989 0-2.18229627l3.35236994-3.4843576 1.25978637 1.309386z"/>
    <path fill="rgb(255,234,195)" fill-rule="evenodd" d="M5.9547504 15.6379199l2.09963052-2.09963169 1.30937834 1.3093776-2.09963052 2.0996317-1.30937834-1.3093776z"/>
    <path fill="rgb(255,209,126)" fill-rule="evenodd" d="M7.44922446 12.40892741l-.5487316 1.33337631c-.04770718.11596008-.02276483.25043756.06302892.33960914l1.81556517 1.88700544c.08579374.08917158.21517721.11513709.32674472.06551045l1.28286794-.57033594-2.93947515-3.0551654z"/>
    <path fill="rgb(255,183,57)" fill-rule="evenodd" d="M8.08125556 16.98951514l-.83984439-.87291028-.83984438.87291028.83984438.87291028c.23192422.2410554.60792017.2410554.8398444 0 .2319242-.24105541.2319242-.63185487 0-.87291028z"/>
    <path fill="rgb(255,209,126)" fill-rule="evenodd" d="M7.24141117 16.98951514c.23192422-.2410554.23192422-.63185487 0-.87291028L5.9816248 14.80721887c-.23192422-.2410554-.60792017-.2410554-.83984439 0-.23192422.24105541-.23192422.63185487 0 .87291028l1.25978638 1.30938599c.23192421.24105541.60792017.24105541.83984438 0z"/>
    <path fill="rgb(225,144,23)" fill-rule="evenodd" d="M21.46087658 8.73945804c0-4.28105926-3.34402466-7.75673675-7.46290589-7.75673675-4.11889648 0-7.46291351 3.47567749-7.46291351 7.75673675 0 4.28105164 3.34401703 7.75672913 7.46291351 7.75672913 4.11888123 0 7.46290589-3.4756775 7.46290589-7.75672913zm-1.43455506 0c0-3.47379303-2.70121765-6.29406738-6.02835083-6.29406738-3.32714843 0-6.02836609 2.82027435-6.02836609 6.29406738 0 3.4737854 2.70121766 6.29405976 6.0283661 6.29405976 3.32713317 0 6.02835082-2.82027436 6.02835082-6.29405976z"/>
  </g>
</svg>
